<svg xmlns="http://www.w3.org/2000/svg" viewBox="0 0 1920 1080" preserveAspectRatio="xMidYMid slice">
  <defs>
    <linearGradient id="g1" x1="0%" y1="0%" x2="100%" y2="100%">
      <stop offset="0%" stop-color="#0d6efd" stop-opacity="0.35"/>
      <stop offset="100%" stop-color="#6610f2" stop-opacity="0.35"/>
    </linearGradient>
    <radialGradient id="g2" cx="70%" cy="20%" r="60%">
      <stop offset="0%" stop-color="#00b894" stop-opacity="0.25"/>
      <stop offset="100%" stop-color="#00b894" stop-opacity="0"/>
    </radialGradient>
    <radialGradient id="g3" cx="20%" cy="80%" r="65%">
      <stop offset="0%" stop-color="#f39c12" stop-opacity="0.22"/>
      <stop offset="100%" stop-color="#f39c12" stop-opacity="0"/>
    </radialGradient>
  </defs>

  <rect width="100%" height="100%" fill="#eff3f8"/>
  <rect width="100%" height="100%" fill="url(#g1)"/>
  <circle cx="1400" cy="200" r="700" fill="url(#g2)"/>
  <circle cx="200" cy="900" r="750" fill="url(#g3)"/>

  <g opacity="0.25" fill="#ffffff">
    <path d="M0 820 C 240 760, 420 860, 720 800 C 980 750, 1220 860, 1600 780 L 1920 720 L 1920 1080 L 0 1080 Z"/>
    <path opacity="0.6" d="M0 860 C 280 800, 520 900, 820 860 C 1140 820, 1300 900, 1700 820 L 1920 780 L 1920 1080 L 0 1080 Z"/>
  </g>
</svg>


